<?xml version="1.0" standalone="no"?><!DOCTYPE svg PUBLIC "-//W3C//DTD SVG 1.1//EN" "http://www.w3.org/Graphics/SVG/1.1/DTD/svg11.dtd"><svg t="1552637653333" class="icon" style="" viewBox="0 0 1024 1024" version="1.1" xmlns="http://www.w3.org/2000/svg" p-id="2596" xmlns:xlink="http://www.w3.org/1999/xlink" width="300" height="300"><defs><style type="text/css"></style></defs><path d="M486.537 668.935c-19.247-3.115-19.68-57.058-19.68-57.058s56.542-57.068 68.868-133.802c33.147 0 53.617-81.573 20.47-110.273 1.38-30.213 42.613-237.191-166.106-237.191-208.712 0-167.484 206.977-166.103 237.19-33.152 28.701-12.679 110.274 20.47 110.274 12.326 76.735 68.867 133.802 68.867 133.802s-0.438 53.943-19.686 57.058C231.661 678.99 0.207 783.07 0.207 897.196h779.76c0-114.126-231.45-218.207-293.43-228.26z m259.087-13.324c-18.149-2.934-18.56-53.803-18.56-53.803S780.38 547.997 792 475.638c31.26 0 50.566-76.927 19.31-103.99 1.301-28.488 40.175-223.666-156.635-223.666-19.739 0-37.1 1.97-52.374 5.531 85.384 57.288 60.474 186.43 59.407 209.805 33.147 28.701 12.677 110.276-20.475 110.276-9.553 59.49-45.678 107.156-61.434 125.574-0.99 2.744-2.321 8.894-2.321 8.894s-2.662 18.633-1.15 33.044c2.797 11.596 7.573 22.025 15.728 23.346 57.994 9.416 264.375 101.147 290.66 206.411h139.606c0.001-107.625-218.254-205.768-276.697-215.252z m0 0" p-id="2597"></path></svg>