<?xml version="1.0" standalone="no"?><!DOCTYPE svg PUBLIC "-//W3C//DTD SVG 1.1//EN" "http://www.w3.org/Graphics/SVG/1.1/DTD/svg11.dtd"><svg t="1552638361353" class="icon" style="" viewBox="0 0 1024 1024" version="1.1" xmlns="http://www.w3.org/2000/svg" p-id="8929" xmlns:xlink="http://www.w3.org/1999/xlink" width="300" height="300"><defs><style type="text/css"></style></defs><path d="M1007.423249 691.210566l-62.718008-12.543602a20.991334 20.991334 0 0 1-15.359513-13.055585 166.394717 166.394717 0 0 0-6.91178-16.895464 20.47935 20.47935 0 0 1 1.535951-20.223358l35.58287-52.990317a20.47935 20.47935 0 0 0-2.81591-25.599187L921.665972 515.600142a19.967366 19.967366 0 0 0-25.599187-2.559919l-53.24631 35.326878a21.247325 21.247325 0 0 1-20.223357 1.535952l-16.895464-7.167773a20.991334 20.991334 0 0 1-13.311577-15.10352l-12.543602-62.718009a20.47935 20.47935 0 0 0-20.223358-16.38348H711.752637a20.47935 20.47935 0 0 0-20.223358 16.38348l-12.543602 62.718009a20.47935 20.47935 0 0 1-13.311577 15.10352l-16.895464 7.167773a21.247325 21.247325 0 0 1-20.223358-1.535952L575.308969 512.016255a19.967366 19.967366 0 0 0-25.599187 2.559919l-34.302911 34.046919a20.47935 20.47935 0 0 0-2.559919 25.599187l35.326879 52.990318a20.47935 20.47935 0 0 1 1.535951 20.223358 166.394717 166.394717 0 0 0-6.911781 16.895463 20.47935 20.47935 0 0 1-15.359512 13.055586l-62.974001 13.823561a20.735342 20.735342 0 0 0-16.639471 20.223358v48.382464a20.735342 20.735342 0 0 0 16.639471 20.223358l62.718009 12.543601a20.47935 20.47935 0 0 1 15.359512 13.055586c2.047935 5.887813 4.351862 11.263642 6.911781 16.895464a20.47935 20.47935 0 0 1-1.535951 20.223357L512.078977 896.004064a20.223358 20.223358 0 0 0 2.559918 25.599187l34.302911 34.302911a20.223358 20.223358 0 0 0 25.599187 2.559919l53.24631-35.326879a20.47935 20.47935 0 0 1 20.223358-1.535951q8.447732 3.839878 16.895463 6.911781a21.247325 21.247325 0 0 1 13.311578 15.359512l13.055585 62.974001a20.47935 20.47935 0 0 0 20.223358 16.383479h48.382464a20.47935 20.47935 0 0 0 20.223358-16.383479l13.567569-62.718009a21.759309 21.759309 0 0 1 13.311577-15.359512q8.447732-3.071902 16.895464-6.911781a20.47935 20.47935 0 0 1 20.223358 1.535951L896.066785 958.722073a20.223358 20.223358 0 0 0 25.599187-2.559919L956.736859 921.603251a20.223358 20.223358 0 0 0 2.81591-25.599187l-35.58287-52.990318a20.47935 20.47935 0 0 1-1.535951-20.223358c2.559919-5.631821 4.863846-11.007651 6.91178-16.895463a20.991334 20.991334 0 0 1 15.359513-13.055586l62.718008-12.543601a20.735342 20.735342 0 0 0 16.639472-20.223358V711.689916a20.735342 20.735342 0 0 0-16.639472-20.47935z m-184.058156 131.579822a123.388082 123.388082 0 1 1 36.094854-87.293228 123.900066 123.900066 0 0 1-36.094854 87.54922z" p-id="8930"></path><path d="M513.614928 1010.688423c-80.63744-65.021936-118.268245-153.595123-118.268245-264.439604A358.388621 358.388621 0 0 1 435.281415 581.134061C204.88873 593.421671 20.830574 758.79242 0.095232 982.017333a27.903114 27.903114 0 0 0 0 4.607854A37.374813 37.374813 0 0 0 37.470045 1024h471.537029a7.167772 7.167772 0 0 0 7.167772-7.423764 6.399797 6.399797 0 0 0-2.559918-5.887813zM460.880602 515.088158h13.311577a360.180564 360.180564 0 0 1 204.793498-118.780229 245.240214 245.240214 0 0 0 39.67874-138.747595A259.575758 259.575758 0 0 0 454.992789 0.032511 263.92762 263.92762 0 0 0 190.297193 257.560334 274.423287 274.423287 0 0 0 460.880602 515.088158z" p-id="8931"></path></svg>