<?xml version="1.0" standalone="no"?><!DOCTYPE svg PUBLIC "-//W3C//DTD SVG 1.1//EN" "http://www.w3.org/Graphics/SVG/1.1/DTD/svg11.dtd"><svg t="1552638961388" class="icon" style="" viewBox="0 0 1706 1024" version="1.1" xmlns="http://www.w3.org/2000/svg" p-id="1778" xmlns:xlink="http://www.w3.org/1999/xlink" width="499.8046875" height="300"><defs><style type="text/css"></style></defs><path d="M1343.707381 674.194644L1177.165251 870.834749c-4.013063 4.681907-9.363815 14.045722-22.071848 14.045721-10.032658 0-18.058785-6.019595-23.409536-14.714565-3.344219-6.688439 0-20.065317 0-31.435663v-92.969301c-48.15676-2.006532-199.31548-4.681907-280.914435 147.145656-4.681907 10.032658-13.376878 16.052253-22.071849 16.052253h-8.026126l-6.688439-6.688439c-7.357283-7.357283-6.688439-17.389941-6.688439-20.73416 2.006532-58.189419 30.766819-332.415415 325.726976-345.123449l-3.34422-103.670803c-0.668844-4.681907 0-16.721097 7.357283-26.753756 9.363815-10.701502 24.07838-13.376878 40.799477-6.019595l4.013064 2.006532 166.542129 185.269758c3.344219 4.013063 17.389941 22.740692 17.389941 43.474853-1.337688 21.403005-18.727629 40.130634-22.071848 43.474853zM783.216199 674.194644H504.308295c-12.708034 0-23.409536-10.032658-23.409536-23.409536 0-12.708034 10.701502-23.409536 23.409536-23.409536h279.576747c12.708034 0 23.409536 10.032658 23.409537 23.409536-0.668844 14.045722-11.370346 23.409536-24.07838 23.409536zM480.898759 232.757675c0-12.708034 10.701502-23.409536 23.409536-23.409537H969.823645c12.708034 0 23.409536 10.701502 23.409536 23.409537s-10.032658 23.409536-23.409536 23.409536H504.308295c-13.376878 0-23.409536-10.701502-23.409536-23.409536zM876.854344 464.846506H504.308295c-12.708034 0-23.409536-10.701502-23.409536-23.409537s10.701502-23.409536 23.409536-23.409536H876.1855c12.708034 0 23.409536 10.701502 23.409536 23.409536-0.668844 13.376878-10.701502 23.409536-22.740692 23.409537z" fill="" p-id="1779"></path><path d="M1155.093403 349.136512c-12.708034 0-23.409536-10.701502-23.409536-23.409536V92.969301c0-26.084912-20.734161-46.819073-46.819073-46.819072H434.079686c-26.084912 0-46.819073 20.734161-46.819072 46.819072v837.392554c0 26.084912 20.734161 46.819073 46.819072 46.819072h651.453952c17.389941 0 32.104507-16.052253 40.130634-23.409536 14.045722-14.045722 16.721097-23.409536 30.097975-23.409536 12.708034 0 23.409536 10.032658 23.409536 23.409536 0 12.708034-40.799477 69.559765-92.969301 69.559765H434.079686c-51.50098 0-92.969301-41.468321-92.969301-92.969301V92.969301C341.110385 41.468321 382.578707 0 434.079686 0h651.453952c51.50098 0 92.969301 41.468321 92.969301 92.969301v232.757675c0 12.708034-10.032658 23.409536-23.409536 23.409536z" fill="" p-id="1780"></path></svg>