<?xml version="1.0" standalone="no"?><!DOCTYPE svg PUBLIC "-//W3C//DTD SVG 1.1//EN" "http://www.w3.org/Graphics/SVG/1.1/DTD/svg11.dtd"><svg t="1552638969709" class="icon" style="" viewBox="0 0 1706 1024" version="1.1" xmlns="http://www.w3.org/2000/svg" p-id="17988" xmlns:xlink="http://www.w3.org/1999/xlink" width="499.8046875" height="300"><defs><style type="text/css"></style></defs><path d="M860.133246 664.161986c-3.344219-3.344219-19.396473-21.403005-19.396473-42.137166 0-19.396473 13.376878-36.786414 16.721098-40.799477l155.840627-173.899412 4.013063-1.337688c15.38341-6.688439 29.429131-4.681907 38.124102 5.350751 8.026127 8.694971 8.026127 19.396473 6.688439 24.747224l-3.34422 97.651209c276.901372 11.370346 304.323971 269.544089 305.661659 323.720444 0 3.344219 0.668844 12.708034-6.019595 19.396473l-6.019595 6.019595H1344.376225c-8.694971 0-16.721097-5.350751-21.403005-14.714566-76.248204-142.463749-218.711953-139.788374-263.524494-137.781842v87.61855c0 10.701502 3.344219 22.740692 0 29.429131-4.681907 9.363815-12.708034 14.045722-22.071848 14.045722-12.708034 0-17.389941-8.694971-21.403005-13.376878l-155.840627-183.93207zM756.462443 664.83083H494.275637c-11.370346 0-22.071848-9.363815-22.071849-22.071849 0-11.370346 10.032658-22.071848 22.071849-22.071848h262.186806c11.370346 0 22.071848 9.363815 22.071848 22.071848 0 12.03919-10.032658 22.071848-22.071848 22.071849zM472.203788 249.478772c0-11.370346 10.032658-22.071848 22.071849-22.071848h436.755062c11.370346 0 22.071848 10.032658 22.071848 22.071848 0 12.03919-9.363815 22.071848-22.071848 22.071849H494.275637c-12.03919 0-22.071848-10.032658-22.071849-22.071849zM844.080993 468.190725H494.275637c-11.370346 0-22.071848-10.032658-22.071849-22.071848 0-11.370346 10.032658-22.071848 22.071849-22.071849h349.805356c11.370346 0 22.071848 10.032658 22.071848 22.071849-0.668844 12.03919-10.701502 22.071848-22.071848 22.071848z" fill="" p-id="17989"></path><path d="M1106.267799 359.16917c-11.370346 0-22.071848-10.032658-22.071849-22.071848V118.385369c0-24.07838-19.396473-43.474853-43.474853-43.474853H428.728935c-24.07838 0-43.474853 19.396473-43.474853 43.474853v785.891574c0 24.07838 19.396473 43.474853 43.474853 43.474853h611.992162c16.721097 0 30.097975-14.714566 37.455258-22.071848 13.376878-13.376878 15.38341-22.071848 28.091444-22.071849 11.370346 0 22.071848 9.363815 22.071848 22.071849 0 11.370346-38.124102 65.546702-87.61855 65.546701H428.728935c-48.15676 0-87.61855-38.792946-87.61855-87.61855V118.385369c0-48.15676 38.792946-87.61855 87.61855-87.61855h611.992162c48.15676 0 87.61855 38.792946 87.61855 87.61855v218.711953c0 11.370346-10.701502 22.071848-22.071848 22.071848z" fill="" p-id="17990"></path></svg>