<?xml version="1.0" standalone="no"?><!DOCTYPE svg PUBLIC "-//W3C//DTD SVG 1.1//EN" "http://www.w3.org/Graphics/SVG/1.1/DTD/svg11.dtd"><svg t="1552639082673" class="icon" style="" viewBox="0 0 1024 1024" version="1.1" xmlns="http://www.w3.org/2000/svg" p-id="19969" xmlns:xlink="http://www.w3.org/1999/xlink" width="300" height="300"><defs><style type="text/css"></style></defs><path d="M632.848 269.129H280.442c-14.899 0-27.028 11.78-27.028 26.161 0 14.38 12.13 26.162 27.028 26.162h352.406c14.902 0 27.027-11.781 27.027-26.162 0-14.38-12.125-26.161-27.027-26.161z m27.027 230.779c0-14.38-12.125-26.161-27.027-26.161H280.442c-14.899 0-27.028 11.78-27.028 26.16 0 13.86 12.13 26.162 27.028 26.162h352.405c14.903 0 27.028-11.78 27.028-26.161z m222.637 247.76H739.75V610.793c0-13.167-11.262-23.912-25.298-23.912h-9.009c-14.035 0-25.295 10.396-25.295 23.912v136.873H537.731c-14.035 0-25.298 10.394-25.298 23.91v9.008c0 13.168 11.263 23.91 25.298 23.91h142.417v137.047c0 13.167 11.26 23.91 25.295 23.91h9.01c14.035 0 25.297-10.394 25.297-23.91V804.495h142.417c13.86 0 25.121-10.742 25.643-23.91v-9.008c0-13.168-11.262-23.91-25.298-23.91z m-602.07-69.304c-14.899 0-27.028 11.781-27.028 26.162 0 14.032 12.13 26.16 27.028 26.16h141.032c14.9 0 27.028-11.78 27.028-26.16s-12.128-26.162-27.028-26.162H280.442z m-117.294-550.44c-1.387 0.52-0.867 0.52 0 0z m0 0c0.083-0.083 0.19-0.161 0.305-0.237-0.046 0.016-0.09 0.033-0.137 0.048-0.1 0.1-0.168 0.189-0.168 0.189z m-37.988 37.181c-0.053 0.173-0.101 0.34-0.151 0.504 0.408-0.948 0.644-1.559 0.151-0.504z m641.542-28.907c-0.515-0.337-0.873-0.559-1.138-0.825 0.43 0.433 0.748 0.732 1.138 0.825z m0.568 0.38c0.218 0.184 0.482 0.357 0.746 0.534-0.276-0.206-0.52-0.379-0.746-0.533z m0.745 0.534c0.21 0.155 0.428 0.322 0.667 0.513a4.332 4.332 0 0 0-0.667-0.513z m-0.745-0.533a1.625 1.625 0 0 1-0.32-0.34c-0.088 0-0.167-0.022-0.247-0.042 0.168 0.111 0.362 0.24 0.567 0.382zM124.683 836.893c0.106 0.106 0.178 0.233 0.248 0.359a0.17 0.17 0 0 0 0.014 0.013l-1.037-2.345c0.018 0.058 0.038 0.113 0.056 0.172 0.182 0.446 0.458 1.122 0.72 1.8z m39.932-709.7a7.836 7.836 0 0 0-0.602 0.21c0.224 0 0.415-0.1 0.602-0.21z m-39.606 38.416c-0.154 0.355-0.328 0.752-0.498 1.125a4.891 4.891 0 0 0 0.498-1.125z m41.863 711.406c-0.089-0.06-0.469-0.244-1.3-0.618h-0.404c0.215 0.088 0.426 0.174 0.626 0.254l1.078 0.364z m-32.312-23.142l0.004 0.006z m-1.122-703.624c0.411-0.067 0.43-0.494 0.43-0.494l0.362-0.434c-0.065 0.074-0.14 0.147-0.206 0.222a120.955 120.955 0 0 0-0.586 0.706z m1.12 703.624l-0.015-0.015 0.01 0.013z m-10.773-685.721l-0.082 0.218c0.153-0.211 0.25-0.523 0.37-0.857-0.004 0.003-0.004 0.002-0.006 0.006l-0.282 0.633z m39.667-40.464c0.226-0.077 0.433-0.155 0.561-0.283-0.025 0-0.044 0.013-0.068 0.015a3.987 3.987 0 0 0-0.493 0.268z m617.532 22.066l-1.387-1.386a170.933 170.933 0 0 0 2.536 2.98 21.027 21.027 0 0 0-0.488-0.761 101.1 101.1 0 0 0-0.661-0.833zM185.01 881.817a4.728 4.728 0 0 0-1.366-0.35c0.048 0.062 0.112 0.106 0.174 0.154 0.451 0.072 0.84 0.135 1.192 0.196z m0.733 0.125a60.048 60.048 0 0 0-0.733-0.125c0.106 0.043 0.207 0.07 0.315 0.125h0.418z" fill="" p-id="19970"></path><path d="M444.172 882.461H195.2c-2.77 0-5.371 0-8.143-0.52h-1.315c2.798 0.494 1.362 0.41-0.418 0-0.435 0-1.093-0.019-1.507-0.32-0.387-0.063-0.801-0.129-1.265-0.2 0.36 0 0.72 0.009 1.091 0.046-0.015-0.018-0.04-0.026-0.052-0.045-3.638-0.52-6.757-1.386-10.396-2.252l-6.324-2.154c0.131 0.094-0.388-0.092-1.079-0.364l-0.74-0.254h0.115c-1.566-0.641-3.242-1.415-0.462-0.52h0.52c-1.386-0.52-2.253-0.865-3.638-1.733a272.568 272.568 0 0 1-7.624-3.985c-1.385-0.865-5.891-3.985-6.758-4.503 0.867 0.52 1.733 1.385 2.773 2.253-2.773-1.733-3.119-2.253-2.773-2.253-3.639-3.12-7.277-6.238-10.395-9.53l-2.248-2.247c1.34 1.716 0.781 1.01-0.011-0.008-0.512-0.005-0.513-0.515-0.513-0.515l0.503 0.502c-1.04-1.339-2.464-3.205-0.503-0.85l0.52 0.52-5.371-8.144c-1.387-2.253-2.772-5.023-3.986-7.623 0-0.26-0.129-0.388-0.258-0.496a0.19 0.19 0 0 0 0.01 0.02c-0.006-0.01-0.017-0.021-0.023-0.032-0.126-0.104-0.248-0.192-0.248-0.36-0.429-0.426-0.511-1.094-0.72-1.801-0.221-0.539-0.301-0.727-0.055-0.172-0.03-0.092-0.053-0.186-0.09-0.278-1.733-5.024-3.12-9.874-3.985-14.901 0 0.375-0.004-0.077-0.2-1.523-0.147-0.663-0.32-1.301-0.32-2.113 0.144 0.866 0.244 1.557 0.32 2.113 0.106 0.471 0.2 0.95 0.2 1.523 0-0.52-0.52-5.89-0.867-7.277V185.966c-0.433 2.686-0.216 0.996 0-0.628v-0.237c0.433-2.945 0.216-1.387 0 0.237v0.282c0.828-5.965 2.612-11.614 4.736-17.25-0.02 0.03-0.034 0.073-0.06 0.097l0.142-0.314c0.07-0.184 0.136-0.369 0.207-0.553l0.075-0.08c0.008-0.021 0.02-0.047 0.03-0.067l-0.025 0.061c0.148-0.163 0.44-0.519 0.44-0.779a1.542 1.542 0 0 0-0.264 0.38c0.431-0.96 0.725-1.606 0.912-2.008 0.06-0.192 0.126-0.396 0.217-0.624 1.386-2.772 2.772-5.024 3.985-7.623 1.386-2.253 3.119-4.505 4.505-6.757l-0.52 0.52c-1.758 1.923-0.888 0.817 0.09-0.373-0.033 0.006-0.05 0.025-0.09 0.025 0.244-0.246 0.459-0.489 0.677-0.732 0.721-0.866 1.192-1.41 0.206-0.222 0.925-1.06 1.688-2.097 2.755-3.031 1.734-2.252 3.986-3.985 6.238-5.89 0.866-0.867 3.985-3.12 5.025-3.986-0.866 0.52-1.733 1.386-2.771 1.733 3.117-2.252 3.637-2.772 2.77-1.733 4.505-3.118 9.01-5.37 14.034-8.144 0.29-0.29 0.681-0.417 1.035-0.534 0.137-0.138 0.352-0.29 0.63-0.317 0.287-0.133 0.62-0.263 0.987-0.397a6.358 6.358 0 0 0-0.318 0.172c0.428-0.132 0.81-0.238 1.258-0.454l-0.474 0.145c-0.082 0-0.155 0.03-0.23 0.051 0.345-0.125 0.712-0.255 1.096-0.398-0.143 0.085-0.265 0.14-0.392 0.2 2.652-0.818 5.562-1.645 8.017-2.626 2.771-0.867 5.889-1.386 9.008-1.732h-1.386c7.275-0.866 4.504-0.52 2.253 0 1.385 0 2.772-0.52 3.985-0.52h535.539c2.137 0 4.474 0.006 6.626 0.244 1.48 0.101 6.042 0.63 2.037 0.276h-0.175a21.415 21.415 0 0 0-1.862-0.276c-0.698-0.047-0.715-0.001 1.171 0.276h0.346c1.734 0.52 3.64 0.52 5.37 0.866 2.774 0.52 5.893 1.387 8.492 2.252 1.385 0.52 5.023 1.734 6.236 2.253l-2.771-1.386c3.639 1.386 3.984 1.732 2.77 1.386 5.027 2.252 9.53 5.024 14.035 7.623 0.521 0.346 0.87 0.346 1.386 0.867 0.52 0.519 0.868 0.519 1.386 0.866 2.253 1.732 4.504 3.638 6.238 5.89 2.253 1.732 3.985 3.986 5.892 6.238l0.52 0.52c0.242 0.243 0.456 0.53 0.66 0.833 0.72 0.916 1.227 1.595 0.489 0.761 0.339 0.552 0.678 1.1 1.103 1.525 2.773 3.639 5.024 7.622 6.758 11.781 0 0 0.063 0.067 0.181 0.234-0.062-0.075-0.11-0.165-0.181-0.234 0 0.52 2.253 5.025 2.771 6.238 0.868 3.118 1.734 6.757 2.773 9.875 0.52 1.387 0.52 2.772 0.868 3.986v0.346c0.25 1.704 0.312 1.896 0.285 1.445a26.195 26.195 0 0 0-0.285-1.965v-0.347c-0.37-3.818 0.223 1.202 0.285 2.312 0.23 2.077 0.233 4.151 0.233 6.524V568c0 14.38 12.13 26.16 27.028 26.16 14.902 0 27.029-11.781 27.029-26.16V196.533c2.253-22.523-3.985-45.566-16.112-65.319-15.766-25.64-40.196-43.659-68.436-54.056-18.887-7.276-38.81-7.276-59.082-7.276H213.218c-17.498 0-34.65 0-51.804 3.984-56.828 14.035-97.37 65.839-97.37 122.148v609c0 36.557 14.034 72.076 42.448 96.851 23.044 20.272 52.324 31.534 83.337 32.92 5.891 0.519 12.128 0 18.538 0h235.804c14.899 0 27.028-11.783 27.028-26.16 0.001-14.382-12.129-26.164-27.027-26.164z m347.554-714.688c-0.182-0.302-0.344-0.673-0.513-1.057a18.181 18.181 0 0 0-0.867-1.567 8.575 8.575 0 0 1 0.867 1.567c0.157 0.311 0.324 0.65 0.513 1.057zM125.086 837.58c0.14 0.32 0.296 0.666 0.466 1.046-0.218-0.214-0.308-0.633-0.467-1.046z" fill="" p-id="19971"></path></svg>