<?xml version="1.0" standalone="no"?><!DOCTYPE svg PUBLIC "-//W3C//DTD SVG 1.1//EN" "http://www.w3.org/Graphics/SVG/1.1/DTD/svg11.dtd"><svg t="1552638055884" class="icon" style="" viewBox="0 0 1024 1024" version="1.1" xmlns="http://www.w3.org/2000/svg" p-id="7478" xmlns:xlink="http://www.w3.org/1999/xlink" width="300" height="300"><defs><style type="text/css"></style></defs><path d="M706.91328 317.60384H180.33152v64.01024h526.58176V317.60384zM377.8048 477.60896H180.33152v224.00512H377.8048V477.60896z m65.8176 32.00512h263.296v-32.00512H443.6224v32.00512z m0 95.98464h263.296v-32H443.6224v32z m0 96.01536h263.296v-32.00512H443.6224v32.00512z m493.66016-384.01024h-98.73408V157.60896c0-17.69472-14.71488-32.00512-32.91648-32.00512H81.60256c-18.18624 0-32.90112 14.3104-32.90112 32.00512v704.00512c0 17.69472 14.72 31.97952 32.90112 31.97952h855.68c18.18624 0 32.90112-14.2848 32.90112-31.97952V349.58336c-0.00512-17.6384-14.72-31.97952-32.90112-31.97952z m-164.55168 512.01024H114.51904V189.58848h658.21184v640.0256z m131.64544 0h-65.82784v-448h65.82784v448z" p-id="7479"></path></svg>