<?xml version="1.0" standalone="no"?><!DOCTYPE svg PUBLIC "-//W3C//DTD SVG 1.1//EN" "http://www.w3.org/Graphics/SVG/1.1/DTD/svg11.dtd"><svg t="1552639042822" class="icon" style="" viewBox="0 0 1058 1024" version="1.1" xmlns="http://www.w3.org/2000/svg" p-id="18452" xmlns:xlink="http://www.w3.org/1999/xlink" width="309.9609375" height="300"><defs><style type="text/css"></style></defs><path d="M0 147.231018V876.768982c0 81.059774 64.516963 145.576737 142.268174 145.576737h774.203555c79.405493 0 142.268174-64.516963 142.268174-145.576737V272.956381H782.47496V147.231018C782.47496 66.171244 717.957997 0 640.206785 0H142.268174C62.862682 0 0 66.171244 0 147.231018z m780.820679 544.258481V345.74475h205.130856v502.901454c0 56.245557-44.66559 102.565428-99.256866 102.565428h-6.617125c-54.591276 0-99.256866-46.319871-99.256865-102.565428v-157.156705zM71.134087 848.646204V177.008078c0-56.245557 44.66559-102.565428 99.256866-102.565429H612.084006c54.591276 0 99.256866 46.319871 99.256866 102.565429V876.768982c0 26.468498 6.617124 51.282714 19.851374 72.788369H170.390953c-54.591276 0-99.256866-44.66559-99.256866-100.911147z" p-id="18453"></path><path d="M178.662359 582.306947h426.804523c19.851373 0 34.739903 16.542811 34.739903 36.394184s-16.542811 36.394184-34.739903 36.394184H178.662359c-19.851373 0-34.739903-16.542811-34.739903-36.394184s14.88853-36.394184 34.739903-36.394184zM178.662359 756.006462h426.804523c19.851373 0 34.739903 16.542811 34.739903 36.394184 0 19.851373-16.542811 36.394184-34.739903 36.394184H178.662359c-19.851373 0-34.739903-16.542811-34.739903-36.394184-1.654281-19.851373 14.88853-36.394184 34.739903-36.394184zM640.206785 431.767367V210.0937c0-23.159935-19.851373-43.011309-43.011308-43.011309H201.822294c-23.159935 0-43.011309 19.851373-43.011309 43.011309v221.673667c0 23.159935 19.851373 43.011309 43.011309 43.011308h395.373183c24.814216 0 43.011309-19.851373 43.011308-43.011308z m-52.936995-9.925687H211.747981V220.019386h375.521809v201.822294z" p-id="18454"></path></svg>