<?xml version="1.0" standalone="no"?><!DOCTYPE svg PUBLIC "-//W3C//DTD SVG 1.1//EN" "http://www.w3.org/Graphics/SVG/1.1/DTD/svg11.dtd"><svg t="1552638714264" class="icon" style="" viewBox="0 0 1024 1024" version="1.1" xmlns="http://www.w3.org/2000/svg" p-id="10717" xmlns:xlink="http://www.w3.org/1999/xlink" width="300" height="300"><defs><style type="text/css"></style></defs><path d="M732.5952 344.1408l-433.1776 0.4096c-23.8336 0-43.1616-19.3024-43.1616-43.1616 0-23.8336 19.3024-43.1616 43.1616-43.1616l433.1776-0.4096c23.8336 0 43.1616 19.328 43.1616 43.1616C775.7568 324.8384 756.4288 344.1408 732.5952 344.1408zM732.5952 516.7616l-433.1776 0.4096c-23.8336 0-43.1616-19.328-43.1616-43.1616 0-23.8592 19.3024-43.1616 43.1616-43.1616l433.1776-0.4096c23.8336 0 43.1616 19.328 43.1616 43.1616C775.7568 497.4592 756.4288 516.7616 732.5952 516.7616zM885.4016 682.1888c-0.64 0.4608-1.2032 1.0752-1.8944 1.5104L595.3536 972.5952c-7.7568 11.6992-20.9408 19.4048-35.9936 19.4048-6.016 0-11.7504-1.2544-16.9472-3.4816-0.2816-0.1024-0.512-0.2816-0.7424-0.4096-7.1936-3.2512-18.2528-13.6448-13.7216-9.1136-0.7168-0.6912-4.6336-6.656-5.9136-8.9088-4.8128-8.1408-6.8096-17.1264-5.8112-26.24l-0.2816-211.3536 0.2816 0 0-43.1616c0-47.6672 38.6304-86.2976 86.2976-86.2976l45.8496 0 0-0.1536 169.856-0.2048L817.9456 205.824c-1.7152-64-20.1984-76.3648-85.9392-76.3648l39.3984-0.9728L272.5376 128.7424l27.904 0.6912c-69.248 0-86.2976 13.0048-86.2976 86.2976l0 602.0096c0 73.2672 17.0752 86.2976 86.2976 86.2976l84.2496 1.0496c23.8336 0 43.1616 19.3024 43.1616 43.1616 0 23.8336-19.3024 43.1616-43.1616 43.1616l-127.3856 0.2304 0-0.256L214.1696 991.3856c-47.6672 0-86.2976-38.6304-86.2976-86.2976l0-45.824L127.8208 859.264 127.488 174.2336l0.384 0L127.872 128.4096c0-46.3616 36.6336-83.8912 82.4832-85.9136l608.2304-0.3584c46.2336 0.1792 83.584 36.736 85.5808 82.5088l0.384 511.8208C900.992 620.4672 917.2992 662.0416 885.4016 682.1888zM689.8432 689.3056c-96.4608-0.7936-86.4512-10.2912-87.5776 84.1984l0.0768 69.8624 153.9072-154.2656L689.8432 689.3056zM817.8944 128.4352l-0.2048 0 0.2048 28.8768L817.8944 128.4352z" p-id="10718"></path></svg>