<?xml version="1.0" standalone="no"?><!DOCTYPE svg PUBLIC "-//W3C//DTD SVG 1.1//EN" "http://www.w3.org/Graphics/SVG/1.1/DTD/svg11.dtd"><svg t="1552638684119" class="icon" style="" viewBox="0 0 1194 1024" version="1.1" xmlns="http://www.w3.org/2000/svg" p-id="10440" xmlns:xlink="http://www.w3.org/1999/xlink" width="349.8046875" height="300"><defs><style type="text/css"></style></defs><path d="M520.376 543.322H186.18c-23.071 0-41.776 18.705-41.776 41.776v334.217c0 23.049 18.705 41.775 41.776 41.775h334.2c23.071 0 41.776-18.726 41.776-41.775V585.098c-0.006-23.071-18.71-41.776-41.781-41.776z m0-480.407H186.18c-23.071 0-41.776 18.705-41.776 41.776v334.2c0 23.082 18.705 41.776 41.776 41.776h334.2c23.071 0 41.776-18.694 41.776-41.776v-334.2c-0.006-23.071-18.71-41.776-41.781-41.776z m486.964 637.078h-334.2c-23.07 0-41.775-18.704-41.775-41.775 0-23.082 18.704-41.787 41.775-41.787h334.2c23.077 0 41.776 18.705 41.776 41.787 0 23.07-18.699 41.775-41.775 41.775zM673.147 804.435h334.2c23.076 0 41.776 18.673 41.776 41.776 0 23.05-18.7 41.776-41.776 41.776h-334.2c-23.071 0-41.776-18.726-41.776-41.776 0-23.103 18.705-41.776 41.776-41.776zM1007.34 219.57h-334.2c-23.07 0-41.775-18.705-41.775-41.781 0-23.066 18.704-41.776 41.775-41.776h334.2c23.077 0 41.776 18.71 41.776 41.776 0 23.076-18.699 41.781-41.775 41.781zM673.147 324.012h334.2c23.076 0 41.776 18.7 41.776 41.776 0 23.082-18.7 41.775-41.776 41.775h-334.2c-23.071 0-41.776-18.693-41.776-41.775 0-23.077 18.705-41.776 41.776-41.776z" p-id="10441"></path></svg>