<?xml version="1.0" standalone="no"?><!DOCTYPE svg PUBLIC "-//W3C//DTD SVG 1.1//EN" "http://www.w3.org/Graphics/SVG/1.1/DTD/svg11.dtd"><svg t="1552638379315" class="icon" style="" viewBox="0 0 1024 1024" version="1.1" xmlns="http://www.w3.org/2000/svg" p-id="9712" xmlns:xlink="http://www.w3.org/1999/xlink" width="300" height="300"><defs><style type="text/css"></style></defs><path d="M775.3 1024 119.7 1024c-46.4 0-84.1-36.7-84.1-81.8L35.6 139.9c0-45.1 37.7-81.9 84.1-81.9l569.8 0 0 47.6L119.7 105.6c-20.1 0-36.5 15.4-36.5 34.3l0 802.2c0 18.9 16.4 34.3 36.5 34.3l655.5 0c20.1 0 36.5-15.4 36.5-34.3l0-618.4 47.6 0 0 618.4C859.3 987.3 821.6 1024 775.3 1024zM736.5 340.1l-88.3-88.3L900.1 0l88.2 88.3L736.5 340.1zM698.7 251.8l37.9 37.8L937.9 88.3l-37.8-37.8L698.7 251.8zM911.3 158.4l-13.5-12.2-67.7-67.6 25.7-24.8L869 65.6l67.1 67.2L911.3 158.4zM611 378.1l31.9-117.7 86 86.4L611 378.1zM655 306.4l-10.3 38.2 38.2-10.1L655 306.4zM206.1 306.7l314.6 0 0 46.8L206.1 353.5 206.1 306.7 206.1 306.7zM206.1 489l460.8 0 0 46.8L206.1 535.8 206.1 489 206.1 489zM206.1 664.1l460.8 0 0 46.8L206.1 710.9 206.1 664.1 206.1 664.1z" p-id="9713"></path></svg>