<?xml version="1.0" standalone="no"?><!DOCTYPE svg PUBLIC "-//W3C//DTD SVG 1.1//EN" "http://www.w3.org/Graphics/SVG/1.1/DTD/svg11.dtd"><svg t="1552637894684" class="icon" style="" viewBox="0 0 1024 1024" version="1.1" xmlns="http://www.w3.org/2000/svg" p-id="3577" xmlns:xlink="http://www.w3.org/1999/xlink" width="300" height="300"><defs><style type="text/css"></style></defs><path d="M726.4 109c-10.4-10.8-20.8-21.4-35.4-28-12.6-4.4-27.2-8.6-43.8-8.6-16.8 0-35.4 4.2-58.4 17.2-14.6 8.6-35.4 19.4-60.6 34.4-27.2 15-52.2 28-79.4 43-29.2 17.2-62.6 34.4-96 53.8h432l-58.4-111.8zM668 545.2c-8.4 8.6-12.6 19.4-12.6 32.2s4.2 23.6 12.6 32.2c8.4 8.6 18.8 12.8 31.4 12.8 12.6 0 23-4.2 31.4-12.8 8.4-8.6 12.6-19.4 12.6-32.2s-4.2-23.6-12.6-32.2c-8.4-8.6-18.8-12.8-31.4-12.8-12.6-0.2-23 4.2-31.4 12.8z m31.4 120.2c-20.8 0-37.6-4.2-50-12.8-12.6-8.6-20.8-19.4-25-30-6.2-12.8-10.4-28-10.4-45.2 0-23.6 8.4-45.2 25-62.4 16.6-17.2 35.4-25.8 60.6-25.8h212.8V356c0-23.6-8.4-45.2-25-62.4-16.6-17.2-35.4-25.8-60.6-25.8H194.2c-23 0-43.8 8.6-60.6 25.8-16.6 17.2-25 36.6-25 62.4v490c0 12.8 2 23.6 6.2 34.4 6.2 10.8 12.6 19.4 20.8 25.8 8.4 8.6 18.8 15 29.2 19.4 10.4 4.2 20.8 6.4 33.4 6.4h632.4c12.6 0 23-2.2 33.4-6.4 10.4-4.4 18.8-10.8 27.2-19.4 6.2-8.6 12.6-17.2 16.8-28 4.2-10.8 6.2-21.4 6.2-34.4v-178.4H699.4z m-217.6 56.8v156h-104.6v-107.4h-53.8v107.4h-104.6v-156H162.4l181.2-166.4 194.8 166.4h-56.6z" p-id="3578"></path></svg>