<?xml version="1.0" standalone="no"?><!DOCTYPE svg PUBLIC "-//W3C//DTD SVG 1.1//EN" "http://www.w3.org/Graphics/SVG/1.1/DTD/svg11.dtd"><svg t="1552637853676" class="icon" style="" viewBox="0 0 1024 1024" version="1.1" xmlns="http://www.w3.org/2000/svg" p-id="2765" xmlns:xlink="http://www.w3.org/1999/xlink" width="300" height="300"><defs><style type="text/css"></style></defs><path d="M165.7 1015.1V6.8c0-1.1 0.9-2 2-2h80.8c1.1 0 2 0.9 2 2v1008.3c0 1.1-0.9 2-2 2h-80.8c-1.1 0-2-0.9-2-2zM934 582.7H325.2c-8.7 0-15.8-7.1-15.8-15.8V36.5c0-8.7 7.1-15.8 15.8-15.8H934c13.7 0 20.9 16.3 11.8 26.4l-220.1 244c-5.4 6-5.4 15.2 0 21.2l220.1 244c9.1 10.1 1.9 26.4-11.8 26.4z" p-id="2766"></path></svg>