<?xml version="1.0" standalone="no"?><!DOCTYPE svg PUBLIC "-//W3C//DTD SVG 1.1//EN" "http://www.w3.org/Graphics/SVG/1.1/DTD/svg11.dtd"><svg t="1548646767669" class="icon" style="" viewBox="0 0 1024 1024" version="1.1" xmlns="http://www.w3.org/2000/svg" p-id="2587" xmlns:xlink="http://www.w3.org/1999/xlink" width="300" height="300"><defs><style type="text/css"></style></defs><path d="M766.3 705.1c29-50.3 92-68.6 143.2-42.9 26.7-101.7 14.9-213.4-41.8-311.6-56.7-98.2-147.6-164.3-249-192-3.3 57.3-50.7 102.6-108.7 102.6-58.1 0-105.6-45.4-108.8-102.7-33.5 9.2-66.3 22.7-97.8 40.8-165 95.2-239.3 287.1-193 462.8 51.2-25.8 114.3-7.5 143.3 42.8 29 50.3 13.4 114-34.5 145.5 129 128 332.4 159.5 497.4 64.3 31.4-18.1 59.7-39.8 84.3-64.3-47.9-31.1-63.6-94.9-34.6-145.3z m0 0" fill="" p-id="2588"></path><path d="M425.5 137.4c0 46.7 37.9 84.6 84.6 84.6 46.7 0 84.6-37.9 84.6-84.6 0-30.2-16.1-58.1-42.3-73.2s-58.4-15.1-84.6 0-42.3 43-42.3 73.2z m0 0M832.9 839.1a84.66 84.66 0 0 0 84.6 0c26.2-15.1 42.3-43 42.3-73.2 0-30.2-16.1-58.1-42.3-73.2a84.66 84.66 0 0 0-84.6 0c-26.2 15.1-42.3 43-42.3 73.2 0 30.2 16.1 58.1 42.3 73.2z m0 0M75.2 810c23.4 40.4 75.1 54.3 115.5 31 40.4-23.4 54.3-75.1 31-115.5-23.4-40.4-75.1-54.3-115.5-31-40.5 23.3-54.4 75.1-31 115.5z m0 0" fill="" p-id="2589"></path></svg>