<?xml version="1.0" standalone="no"?><!DOCTYPE svg PUBLIC "-//W3C//DTD SVG 1.1//EN" "http://www.w3.org/Graphics/SVG/1.1/DTD/svg11.dtd"><svg t="1552639179216" class="icon" style="" viewBox="0 0 1024 1024" version="1.1" xmlns="http://www.w3.org/2000/svg" p-id="22047" xmlns:xlink="http://www.w3.org/1999/xlink" width="300" height="300"><defs><style type="text/css"></style></defs><path d="M538.41 837.88l-114.82 12.47 119.27-238a166.35 166.35 0 0 1-16.69-72.55c0-91.48 74.42-165.89 165.9-165.89S858 448.36 858 539.83a166 166 0 0 1-19.75 78.57l127.31 222-115.35-6L797.12 937 690.49 751.06l-93.35 186.27z m55-9.87l63.2-126.11a166.28 166.28 0 0 1-79-42l-64.19 128.04 52.91-5.74z m201.37-0.39l24.45-47.27 53.13 2.77-69-120.28a166.22 166.22 0 0 1-80.19 39.95zM692.07 426.28a113.56 113.56 0 1 0 80.29 33.26 112.84 112.84 0 0 0-80.29-33.26z m0 0" fill="#8a8a8a" p-id="22048"></path><path d="M147.64 959.73a82.91 82.91 0 0 1-82.82-82.83V147.07a82.91 82.91 0 0 1 82.82-82.82h703a82.91 82.91 0 0 1 82.81 82.82v517.39H879V147.07a28.44 28.44 0 0 0-28.4-28.4h-703a28.43 28.43 0 0 0-28.4 28.4V876.9a28.43 28.43 0 0 0 28.4 28.41H377v54.42z m0 0" fill="#8a8a8a" p-id="22049"></path><path d="M241.41 287a25.76 25.76 0 0 1 0-51.52h539a25.76 25.76 0 0 1 0 51.52z m0 141.77a25.76 25.76 0 0 1 0-51.51H476.9a25.76 25.76 0 1 1 0 51.51z m0 143.46a25.76 25.76 0 0 1 0-51.52h200.66a25.76 25.76 0 1 1 0 51.52z m0 0" fill="#8a8a8a" p-id="22050"></path></svg>