<?xml version="1.0" standalone="no"?><!DOCTYPE svg PUBLIC "-//W3C//DTD SVG 1.1//EN" "http://www.w3.org/Graphics/SVG/1.1/DTD/svg11.dtd"><svg t="1552638023578" class="icon" style="" viewBox="0 0 1024 1024" version="1.1" xmlns="http://www.w3.org/2000/svg" p-id="6007" xmlns:xlink="http://www.w3.org/1999/xlink" width="300" height="300"><defs><style type="text/css"></style></defs><path d="M791.573 512h-11.392C752.811 626.283 654.06 712.277 534.06 719.317V896H682.24a42.453 42.453 0 0 1 42.261 42.624v0.043h-423.21v-0.043A42.453 42.453 0 0 1 343.552 896h148.181V719.317C371.755 712.277 272.981 626.283 245.611 512h-11.712c-93.526 0-169.344-75.605-169.344-168.875V220.053c0-17.664 12.458-32 27.84-32h145.429V136.79a51.243 51.243 0 0 1 51.05-51.456H736.96a51.264 51.264 0 0 1 51.05 51.456v51.264H933.1c15.36 0 27.818 14.336 27.818 32v123.072C960.917 436.395 885.1 512 791.573 512zM233.365 230.72H106.901v112.405c0 69.547 56.918 126.123 126.891 126.208l-0.427-238.613z m512.32-93.93a8.768 8.768 0 0 0-8.725-8.79H288.875a8.747 8.747 0 0 0-8.726 8.79v311.253c0 126.421 102.016 229.269 227.435 229.269h10.688c125.397 0 227.435-102.848 227.435-229.27V136.79z m172.907 93.93H792.128l-0.405 238.613c69.973-0.085 126.89-56.661 126.89-126.208V230.72zM401.813 550.485c0.832 0.363 0.79 0.47 0.47 0.47a4.736 4.736 0 0 1-0.47-0.043v-0.427z" p-id="6008"></path></svg>