<?xml version="1.0" standalone="no"?><!DOCTYPE svg PUBLIC "-//W3C//DTD SVG 1.1//EN" "http://www.w3.org/Graphics/SVG/1.1/DTD/svg11.dtd"><svg t="1555897198593" class="icon" style="" viewBox="0 0 1024 1024" version="1.1" xmlns="http://www.w3.org/2000/svg" p-id="1089" xmlns:xlink="http://www.w3.org/1999/xlink" width="200" height="200"><defs><style type="text/css"></style></defs><path d="M403.2 723.2H902.4s6.4 0 6.4-6.4l6.4-6.4V704v-6.4-537.6-6.4-6.4-6.4s0-6.4-6.4-6.4l-6.4-6.4H896h-6.4H140.8h-6.4H128h-6.4s-6.4 0-6.4 6.4l-6.4 6.4V704s0 6.4 6.4 6.4l6.4 6.4h140.8v25.6l12.8 128 128-147.2z m-198.4 57.6H121.6c-6.4 0-12.8 0-19.2-6.4-6.4 0-12.8-6.4-12.8-6.4l-12.8-12.8c-6.4 0-12.8-6.4-12.8-12.8-6.4-6.4-6.4-12.8-6.4-12.8 0-6.4-6.4-12.8-6.4-19.2V160v-19.2c0-6.4 0-12.8 6.4-19.2 0-6.4 6.4-12.8 6.4-12.8l12.8-12.8 12.8-12.8c6.4-6.4 12.8-6.4 12.8-6.4 6.4 0 12.8-6.4 19.2-6.4H902.4c6.4 0 12.8 0 19.2 6.4 6.4 0 12.8 6.4 12.8 6.4l12.8 12.8 12.8 12.8c6.4 6.4 6.4 12.8 6.4 12.8 0 6.4 6.4 12.8 6.4 19.2V704c0 6.4 0 12.8-6.4 19.2 0 6.4-6.4 12.8-6.4 12.8l-12.8 12.8-12.8 12.8c-6.4 6.4-12.8 6.4-12.8 6.4-6.4 0-12.8 6.4-19.2 6.4H435.2l-134.4 160c-25.6 32-76.8 12.8-83.2-25.6l-12.8-128z" fill="#999999" p-id="1090"></path><path d="M742.4 332.8H281.6c-19.2 0-32-12.8-32-32s12.8-32 32-32h467.2c19.2 0 32 12.8 32 32s-19.2 32-38.4 32M742.4 518.4H281.6c-19.2 0-32-12.8-32-32s12.8-32 32-32h467.2c19.2 0 32 12.8 32 32s-19.2 32-38.4 32" fill="#999999" p-id="1091"></path></svg>